<svg width="20" height="20" viewBox="0 0 20 20" fill="none" xmlns="http://www.w3.org/2000/svg">
<path d="M18.175 8.125L16.25 7.98125C16.1465 7.64681 16.0126 7.32254 15.85 7.0125L17.1 5.54375C17.203 5.42428 17.2571 5.27027 17.2513 5.11262C17.2455 4.95496 17.1803 4.80534 17.0688 4.69375L15.3063 2.925C15.1907 2.81782 15.0389 2.75826 14.8813 2.75826C14.7236 2.75826 14.5718 2.81782 14.4563 2.925L12.9875 4.175C12.6784 4.00381 12.3541 3.86153 12.0188 3.75L11.875 1.825C11.8624 1.66806 11.791 1.52165 11.6752 1.41504C11.5593 1.30844 11.4075 1.2495 11.25 1.25H8.75C8.59255 1.2495 8.44071 1.30844 8.32484 1.41504C8.20897 1.52165 8.1376 1.66806 8.125 1.825L7.98125 3.75C7.64681 3.8535 7.32254 3.98739 7.0125 4.15L5.54375 2.9C5.42818 2.79282 5.27638 2.73326 5.11875 2.73326C4.96113 2.73326 4.80933 2.79282 4.69375 2.9L2.925 4.69375C2.81782 4.80933 2.75826 4.96113 2.75826 5.11875C2.75826 5.27638 2.81782 5.42818 2.925 5.54375L4.175 7.0125C4.00381 7.32164 3.86153 7.64594 3.75 7.98125L1.825 8.125C1.66806 8.1376 1.52165 8.20897 1.41504 8.32484C1.30844 8.44071 1.2495 8.59255 1.25 8.75V11.25C1.2495 11.4075 1.30844 11.5593 1.41504 11.6752C1.52165 11.791 1.66806 11.8624 1.825 11.875L3.75 12.0188C3.8535 12.3532 3.98739 12.6775 4.15 12.9875L2.9 14.4563C2.79282 14.5718 2.73326 14.7236 2.73326 14.8813C2.73326 15.0389 2.79282 15.1907 2.9 15.3063L4.66875 17.075C4.78034 17.1865 4.92996 17.2517 5.08762 17.2575C5.24527 17.2633 5.39928 17.2093 5.51875 17.1063L6.9875 15.8563C7.29754 16.0189 7.62181 16.1528 7.95625 16.2563L8.125 18.175C8.1376 18.3319 8.20897 18.4784 8.32484 18.585C8.44071 18.6916 8.59255 18.7505 8.75 18.75H11.25C11.4075 18.7505 11.5593 18.6916 11.6752 18.585C11.791 18.4784 11.8624 18.3319 11.875 18.175L12.0188 16.25C12.3532 16.1465 12.6775 16.0126 12.9875 15.85L14.4563 17.1C14.5757 17.203 14.7297 17.2571 14.8874 17.2513C15.045 17.2455 15.1947 17.1803 15.3063 17.0688L17.075 15.3C17.1865 15.1884 17.2517 15.0388 17.2575 14.8811C17.2633 14.7235 17.2093 14.5695 17.1063 14.45L15.8563 12.9813C16.0164 12.673 16.1482 12.3508 16.25 12.0188L18.175 11.875C18.3319 11.8624 18.4784 11.791 18.585 11.6752C18.6916 11.5593 18.7505 11.4075 18.75 11.25V8.75C18.7505 8.59255 18.6916 8.44071 18.585 8.32484C18.4784 8.20897 18.3319 8.1376 18.175 8.125ZM17.5 10.6688L15.7125 10.8063C15.5816 10.817 15.4575 10.8686 15.3576 10.9539C15.2578 11.0391 15.1873 11.1537 15.1563 11.2813C15.0226 11.7954 14.8119 12.2864 14.5313 12.7375C14.4624 12.8498 14.4307 12.9809 14.4408 13.1122C14.4509 13.2436 14.5023 13.3683 14.5875 13.4688L15.7563 14.8313L14.8063 15.7813L13.4438 14.6125C13.3433 14.5273 13.2186 14.4759 13.0872 14.4658C12.9559 14.4557 12.8248 14.4874 12.7125 14.5563C12.2614 14.8369 11.7704 15.0476 11.2563 15.1813C11.1287 15.2123 11.0141 15.2828 10.9289 15.3826C10.8436 15.4825 10.792 15.6066 10.7813 15.7375L10.6688 17.5H9.33125L9.19375 15.7125C9.18304 15.5816 9.13139 15.4575 9.04613 15.3576C8.96086 15.2578 8.84632 15.1873 8.71875 15.1563C8.20457 15.0226 7.71359 14.8119 7.2625 14.5313C7.15024 14.4624 7.01908 14.4307 6.88776 14.4408C6.75644 14.4509 6.63167 14.5023 6.53125 14.5875L5.16875 15.7813L4.21875 14.8313L5.3875 13.4688C5.47273 13.3683 5.52406 13.2436 5.53416 13.1122C5.54426 12.9809 5.51262 12.8498 5.44375 12.7375C5.16311 12.2864 4.95239 11.7954 4.81875 11.2813C4.78768 11.1537 4.71722 11.0391 4.61737 10.9539C4.51753 10.8686 4.39336 10.817 4.2625 10.8063L2.5 10.6688V9.33125L4.2875 9.19375C4.41435 9.18514 4.53556 9.13805 4.63494 9.05877C4.73433 8.97948 4.80717 8.87177 4.84375 8.75C4.97739 8.23582 5.18811 7.74484 5.46875 7.29375C5.53762 7.18149 5.56926 7.05033 5.55916 6.91901C5.54906 6.78769 5.49773 6.66292 5.4125 6.5625L4.21875 5.16875L5.16875 4.21875L6.53125 5.3875C6.63167 5.47273 6.75644 5.52406 6.88776 5.53416C7.01908 5.54426 7.15024 5.51262 7.2625 5.44375C7.71359 5.16311 8.20457 4.95239 8.71875 4.81875C8.84632 4.78768 8.96086 4.71722 9.04613 4.61737C9.13139 4.51753 9.18304 4.39336 9.19375 4.2625L9.33125 2.5H10.6688L10.8063 4.2875C10.817 4.41836 10.8686 4.54253 10.9539 4.64237C11.0391 4.74222 11.1537 4.81268 11.2813 4.84375C11.7954 4.97739 12.2864 5.18811 12.7375 5.46875C12.8498 5.53762 12.9809 5.56926 13.1122 5.55916C13.2436 5.54906 13.3683 5.49773 13.4688 5.4125L14.8313 4.24375L15.7813 5.19375L14.6125 6.55625C14.5273 6.65667 14.4759 6.78144 14.4658 6.91276C14.4557 7.04408 14.4874 7.17523 14.5563 7.2875C14.8369 7.73859 15.0476 8.22957 15.1813 8.74375C15.2123 8.87132 15.2828 8.98586 15.3826 9.07113C15.4825 9.15639 15.6066 9.20804 15.7375 9.21875L17.525 9.35625L17.5 10.6688Z" fill="white"/>
<path d="M10.4437 11.0246L9.55625 11.9059L10.4 12.7496C10.213 12.7893 10.0224 12.8102 9.83125 12.8121C9.30127 12.8127 8.7819 12.6636 8.33299 12.3819C7.88409 12.1001 7.52392 11.6973 7.29398 11.2198C7.06405 10.7423 6.97371 10.2096 7.03338 9.68295C7.09305 9.15634 7.3003 8.65731 7.63125 8.24336L6.65625 7.46211C6.17816 8.05984 5.87866 8.78048 5.79225 9.541C5.70585 10.3015 5.83605 11.071 6.16786 11.7607C6.49967 12.4505 7.0196 13.0325 7.66773 13.4396C8.31586 13.8468 9.06583 14.0626 9.83125 14.0621H10.0687L9.55625 14.5684L10.4437 15.4559L12.2125 13.6871C12.2711 13.629 12.3176 13.5599 12.3493 13.4837C12.381 13.4076 12.3974 13.3259 12.3974 13.2434C12.3974 13.1609 12.381 13.0792 12.3493 13.003C12.3176 12.9268 12.2711 12.8577 12.2125 12.7996L10.4437 11.0246ZM10.0437 5.94961L10.4437 5.54961L9.55625 4.66211L7.7875 6.43086C7.72892 6.48896 7.68242 6.55809 7.65069 6.63425C7.61896 6.71041 7.60262 6.7921 7.60262 6.87461C7.60262 6.95712 7.61896 7.03881 7.65069 7.11497C7.68242 7.19113 7.72892 7.26026 7.7875 7.31836L9.55625 9.08711L10.4437 8.19961L9.45625 7.21211C9.58116 7.20569 9.70633 7.20569 9.83125 7.21211C10.5767 7.21376 11.2911 7.51061 11.8182 8.03769C12.3452 8.56478 12.6421 9.2792 12.6437 10.0246C12.6454 10.5688 12.4867 11.1014 12.1875 11.5559L13.2375 12.2434C13.6687 11.5747 13.8967 10.7953 13.8937 9.99961C13.892 8.96015 13.4918 7.96092 12.7757 7.20755C12.0595 6.45418 11.0818 6.00398 10.0437 5.94961Z" fill="white"/>
</svg>
