<svg width="20" height="20" viewBox="0 0 20 20" fill="none" xmlns="http://www.w3.org/2000/svg">
<path fill-rule="evenodd" clip-rule="evenodd" d="M10.019 0.833008C4.95831 0.833008 0.831389 4.95343 0.831383 10.0141C0.83137 15.0748 4.9583 19.2001 10.019 19.2001C15.0797 19.2001 19.1985 15.0748 19.1985 10.0141C19.1985 4.95343 15.0797 0.833008 10.019 0.833008ZM10.019 2.5023C14.1775 2.5023 17.5292 5.85557 17.5292 10.0141C17.5292 14.1726 14.1776 17.5308 10.019 17.5308C5.86045 17.5308 2.50066 14.1726 2.50067 10.0141C2.50068 5.85557 5.86046 2.5023 10.019 2.5023ZM10.006 5.82947C9.89566 5.83054 9.78667 5.85346 9.68528 5.8969C9.58389 5.94035 9.49211 6.00346 9.41526 6.08258C9.3384 6.16171 9.278 6.25529 9.23752 6.3579C9.19705 6.46051 9.17732 6.57013 9.17947 6.68042V9.18109H6.67879C6.65001 9.1796 6.62117 9.1796 6.59239 9.18109C6.37082 9.19255 6.16286 9.29156 6.01429 9.45634C5.86571 9.62112 5.78868 9.83818 5.80013 10.0598C5.81159 10.2813 5.9106 10.4893 6.07538 10.6379C6.24016 10.7864 6.45722 10.8635 6.67879 10.852H9.17947V13.3527C9.17947 13.5743 9.26749 13.7868 9.42417 13.9435C9.58085 14.1001 9.79335 14.1882 10.0149 14.1882C10.2365 14.1882 10.449 14.1001 10.6057 13.9435C10.7624 13.7868 10.8504 13.5743 10.8504 13.3527V10.852H13.3511C13.5726 10.852 13.7851 10.764 13.9418 10.6073C14.0985 10.4506 14.1865 10.2381 14.1865 10.0166C14.1865 9.79498 14.0985 9.58248 13.9418 9.4258C13.7851 9.26912 13.5726 9.18109 13.3511 9.18109H10.8504V6.68042C10.8526 6.56862 10.8323 6.45753 10.7907 6.35373C10.7491 6.24993 10.6871 6.15554 10.6083 6.07617C10.5296 5.9968 10.4357 5.93407 10.3322 5.89169C10.2287 5.84931 10.1178 5.82815 10.006 5.82947Z" fill="white"/>
</svg>
