<svg width="20" height="20" viewBox="0 0 20 20" fill="none" xmlns="http://www.w3.org/2000/svg">
<path d="M3.75 10.0001C3.75 11.6577 4.40848 13.2474 5.58058 14.4195C6.75268 15.5916 8.3424 16.2501 10 16.2501C11.6576 16.2501 13.2473 15.5916 14.4194 14.4195C15.5915 13.2474 16.25 11.6577 16.25 10.0001M3.75 10.0001C3.75 8.34249 4.40848 6.75278 5.58058 5.58067C6.75268 4.40857 8.3424 3.75009 10 3.75009C11.6576 3.75009 13.2473 4.40857 14.4194 5.58067C15.5915 6.75278 16.25 8.34249 16.25 10.0001M3.75 10.0001H2.5M16.25 10.0001H17.5M16.25 10.0001H10L6.25 3.50426M2.9525 12.5643L4.1275 12.1368M15.8733 7.86176L17.0483 7.43426M4.255 14.8209L5.21333 14.0176M14.7883 5.98259L15.7458 5.17926M6.25083 16.4959L6.87583 15.4126L10.0017 10.0001M13.1258 4.58759L13.7508 3.50426M8.69833 17.3859L8.915 16.1551M11.0858 3.84509L11.3025 2.61426M11.3025 17.3859L11.0858 16.1551M8.915 3.84509L8.69833 2.61426M13.75 16.4951L13.125 15.4126M15.745 14.8209L14.7875 14.0176M5.21333 5.98176L4.255 5.17842M17.0483 12.5651L15.8733 12.1376M4.12833 7.86259L2.95333 7.43426" stroke="#667085" stroke-width="1.8" stroke-linecap="round" stroke-linejoin="round"/>
</svg>
