<svg width="20" height="20" viewBox="0 0 20 20" fill="none" xmlns="http://www.w3.org/2000/svg">
<path d="M10 13C9.40666 13 8.82664 12.824 8.33329 12.4944C7.83994 12.1648 7.45542 11.6962 7.22836 11.148C7.0013 10.5999 6.94189 9.99666 7.05764 9.41472C7.1734 8.83278 7.45912 8.29823 7.87868 7.87867C8.29824 7.45911 8.83279 7.17339 9.41473 7.05763C9.99667 6.94188 10.5999 7.00129 11.1481 7.22835C11.6962 7.45542 12.1648 7.83993 12.4944 8.33328C12.8241 8.82663 13 9.40665 13 9.99999C12.9985 10.7952 12.6819 11.5574 12.1197 12.1196C11.5574 12.6819 10.7952 12.9985 10 13ZM10 8.42856C9.6892 8.42856 9.38538 8.52073 9.12696 8.6934C8.86854 8.86607 8.66713 9.11149 8.54819 9.39863C8.42925 9.68577 8.39813 10.0017 8.45877 10.3066C8.5194 10.6114 8.66906 10.8914 8.88883 11.1112C9.1086 11.3309 9.3886 11.4806 9.69343 11.5412C9.99826 11.6019 10.3142 11.5707 10.6014 11.4518C10.8885 11.3329 11.1339 11.1315 11.3066 10.873C11.4793 10.6146 11.5714 10.3108 11.5714 9.99999C11.5714 9.58322 11.4059 9.18352 11.1112 8.88882C10.8165 8.59412 10.4168 8.42856 10 8.42856ZM14.2857 14.1771C14.1451 14.1763 14.0078 14.1339 13.8912 14.0554C13.7745 13.9768 13.6837 13.8656 13.63 13.7356C13.5763 13.6056 13.5621 13.4627 13.5893 13.3247C13.6165 13.1867 13.6839 13.0599 13.7829 12.96C14.5659 12.1739 15.0055 11.1095 15.0055 9.99999C15.0055 8.89044 14.5659 7.82609 13.7829 7.03999C13.7106 6.97503 13.6524 6.89601 13.6117 6.80776C13.571 6.71952 13.5488 6.62391 13.5464 6.52678C13.5439 6.42965 13.5613 6.33304 13.5975 6.24286C13.6337 6.15269 13.6879 6.07085 13.7568 6.00234C13.8257 5.93383 13.9078 5.8801 13.9982 5.84443C14.0886 5.80876 14.1853 5.7919 14.2824 5.79489C14.3795 5.79788 14.475 5.82066 14.563 5.86182C14.651 5.90298 14.7297 5.96166 14.7943 6.03428C15.8439 7.08719 16.4333 8.51327 16.4333 9.99999C16.4333 11.4867 15.8439 12.9128 14.7943 13.9657C14.7281 14.0334 14.649 14.087 14.5616 14.1233C14.4742 14.1596 14.3804 14.1779 14.2857 14.1771ZM5.71429 14.1828C5.52357 14.1819 5.34087 14.106 5.20571 13.9714C4.15574 12.9175 3.56619 11.4905 3.56619 10.0028C3.56619 8.51519 4.15574 7.08816 5.20571 6.03428C5.33984 5.90015 5.52175 5.8248 5.71143 5.8248C5.90111 5.8248 6.08302 5.90015 6.21714 6.03428C6.35127 6.1684 6.42662 6.35031 6.42662 6.53999C6.42662 6.72967 6.35127 6.91158 6.21714 7.0457C5.43446 7.83084 4.99496 8.89423 4.99496 10.0028C4.99496 11.1115 5.43446 12.1749 6.21714 12.96C6.28366 13.0263 6.33644 13.1052 6.37245 13.1919C6.40846 13.2787 6.42699 13.3718 6.42699 13.4657C6.42699 13.5597 6.40846 13.6527 6.37245 13.7395C6.33644 13.8262 6.28366 13.9051 6.21714 13.9714C6.0834 14.1046 5.90302 14.1804 5.71429 14.1828Z" fill="white"/>
<path d="M16.4629 16.9486C16.2734 16.9486 16.0917 16.8733 15.9578 16.7394C15.8238 16.6054 15.7486 16.4237 15.7486 16.2343C15.7498 16.0392 15.8278 15.8524 15.9657 15.7143C16.7425 14.979 17.3612 14.093 17.784 13.1105C18.2068 12.128 18.4249 11.0696 18.4249 9.99999C18.4249 8.93038 18.2068 7.87199 17.784 6.8895C17.3612 5.907 16.7425 5.02103 15.9657 4.28571C15.8293 4.15386 15.7509 3.97322 15.7477 3.78354C15.7445 3.59386 15.8167 3.41067 15.9486 3.27428C16.0804 3.13788 16.2611 3.05945 16.4507 3.05623C16.6404 3.05302 16.8236 3.12528 16.96 3.25713C17.8722 4.12502 18.5984 5.16924 19.0947 6.32639C19.591 7.48354 19.8469 8.72949 19.8469 9.98856C19.8469 11.2476 19.591 12.4936 19.0947 13.6507C18.5984 14.8079 17.8722 15.8521 16.96 16.72C16.8968 16.7897 16.8202 16.8458 16.7348 16.8851C16.6494 16.9244 16.5569 16.946 16.4629 16.9486ZM3.53714 16.9486C3.42902 16.9531 3.3213 16.9328 3.22224 16.8892C3.12319 16.8456 3.03544 16.7799 2.96571 16.6971C2.06172 15.824 1.34413 14.7767 0.856306 13.6185C0.368481 12.4603 0.120548 11.2151 0.127492 9.95839C0.134435 8.70164 0.39611 7.45933 0.896704 6.30656C1.3973 5.15378 2.12642 4.11447 3.04 3.25142C3.1764 3.11957 3.35958 3.0473 3.54926 3.05052C3.73894 3.05373 3.91958 3.13217 4.05143 3.26856C4.18328 3.40496 4.25554 3.58815 4.25233 3.77783C4.24911 3.96751 4.17068 4.14814 4.03428 4.27999C3.25751 5.01532 2.63881 5.90129 2.21599 6.88378C1.79316 7.86628 1.57509 8.92466 1.57509 9.99428C1.57509 11.0639 1.79316 12.1223 2.21599 13.1048C2.63881 14.0873 3.25751 14.9732 4.03428 15.7086C4.10264 15.7757 4.15702 15.8557 4.19429 15.944C4.23155 16.0323 4.25098 16.127 4.25143 16.2228C4.25218 16.3174 4.2343 16.4112 4.19881 16.4988C4.16332 16.5865 4.11092 16.6663 4.04459 16.7336C3.97826 16.801 3.89931 16.8547 3.81224 16.8916C3.72517 16.9285 3.63169 16.9478 3.53714 16.9486Z" fill="white"/>
</svg>
