<svg width="20" height="20" viewBox="0 0 20 20" fill="none" xmlns="http://www.w3.org/2000/svg">
<path d="M6.66667 4.16675C6.22464 4.16675 5.80072 4.34234 5.48816 4.6549C5.17559 4.96746 5 5.39139 5 5.83341V14.1667C5 14.6088 5.17559 15.0327 5.48816 15.3453C5.80072 15.6578 6.22464 15.8334 6.66667 15.8334C7.10869 15.8334 7.53262 15.6578 7.84518 15.3453C8.15774 15.0327 8.33333 14.6088 8.33333 14.1667V5.83341C8.33333 5.39139 8.15774 4.96746 7.84518 4.6549C7.53262 4.34234 7.10869 4.16675 6.66667 4.16675ZM13.3333 4.16675C12.8913 4.16675 12.4674 4.34234 12.1548 4.6549C11.8423 4.96746 11.6667 5.39139 11.6667 5.83341V14.1667C11.6667 14.6088 11.8423 15.0327 12.1548 15.3453C12.4674 15.6578 12.8913 15.8334 13.3333 15.8334C13.7754 15.8334 14.1993 15.6578 14.5118 15.3453C14.8244 15.0327 15 14.6088 15 14.1667V5.83341C15 5.39139 14.8244 4.96746 14.5118 4.6549C14.1993 4.34234 13.7754 4.16675 13.3333 4.16675Z" fill="white"/>
</svg>
