<svg width="20" height="20" viewBox="0 0 20 20" fill="none" xmlns="http://www.w3.org/2000/svg">
<path d="M15.5547 15.4006C16.0527 15.4006 16.5547 15.2952 16.9648 14.9963C17.4375 14.6526 17.8164 14.1584 17.9219 13.5706C17.9961 13.1526 17.9727 12.7268 17.9727 12.3049C17.9727 11.3401 17.9785 10.3733 17.9727 9.40649C17.9707 8.94946 17.8398 8.47094 17.5684 8.09985C17.2266 7.6311 16.7383 7.25415 16.1562 7.14672C15.9316 7.10376 15.7012 7.08227 15.4727 7.09399C15.1289 7.11157 14.8301 7.19555 14.5215 7.34008C13.9824 7.59204 13.6016 8.08032 13.3887 8.62133C13.2168 9.05688 13.25 9.54126 13.25 10.0002V13.0373C13.25 13.426 13.334 13.7776 13.498 14.1272C13.748 14.6663 14.2383 15.0471 14.7793 15.26C15.0234 15.3577 15.293 15.3987 15.5547 15.4006C15.9629 15.4045 16.3555 15.0393 16.3359 14.6194C16.3164 14.1936 15.9922 13.842 15.5547 13.8381C15.4824 13.8381 15.4121 13.8323 15.3398 13.8225C15.4082 13.8323 15.4785 13.842 15.5469 13.8498C15.416 13.8303 15.291 13.7952 15.1699 13.7444C15.2324 13.7698 15.2949 13.7971 15.3574 13.8225C15.2383 13.7717 15.1289 13.7073 15.0254 13.6291L15.1836 13.7522C15.0762 13.6682 14.9805 13.5725 14.8965 13.4651L15.0195 13.6233C14.9414 13.5198 14.877 13.4104 14.8262 13.2913C14.8516 13.3538 14.8789 13.4163 14.9043 13.4788C14.8535 13.3577 14.8184 13.2327 14.7988 13.1018C14.8086 13.1702 14.8184 13.2405 14.8262 13.3088C14.8027 13.135 14.8105 12.9573 14.8105 12.7815V9.79126C14.8105 9.58813 14.7988 9.3811 14.8262 9.17993C14.8164 9.24829 14.8066 9.3186 14.7988 9.38696C14.8184 9.2561 14.8535 9.1311 14.9043 9.01001C14.8789 9.07251 14.8516 9.13501 14.8262 9.19751C14.877 9.07836 14.9414 8.96899 15.0195 8.86547L14.8965 9.02368C14.9805 8.91626 15.0762 8.82055 15.1836 8.73657L15.0254 8.85961C15.1289 8.78149 15.2383 8.71704 15.3574 8.66626C15.2949 8.69165 15.2324 8.71899 15.1699 8.74438C15.291 8.6936 15.416 8.65844 15.5469 8.63891C15.4785 8.64868 15.4082 8.65844 15.3398 8.66626C15.5176 8.64282 15.7051 8.64282 15.8828 8.66626C15.8145 8.65649 15.7441 8.64672 15.6758 8.63891C15.8066 8.65844 15.9316 8.6936 16.0527 8.74438C15.9902 8.71899 15.9277 8.69165 15.8652 8.66626C15.9844 8.71704 16.0938 8.78149 16.1973 8.85961L16.0391 8.73657C16.1465 8.82055 16.2422 8.91626 16.3262 9.02368L16.2031 8.86547C16.2812 8.96899 16.3457 9.07836 16.3965 9.19751C16.3711 9.13501 16.3438 9.07251 16.3184 9.01001C16.3691 9.1311 16.4043 9.2561 16.4238 9.38696C16.4141 9.3186 16.4043 9.24829 16.3965 9.17993C16.4199 9.35376 16.4121 9.53149 16.4121 9.70727V12.6975C16.4121 12.9006 16.4238 13.1077 16.3965 13.3088C16.4062 13.2405 16.416 13.1702 16.4238 13.1018C16.4043 13.2327 16.3691 13.3577 16.3184 13.4788C16.3438 13.4163 16.3711 13.3538 16.3965 13.2913C16.3457 13.4104 16.2812 13.5198 16.2031 13.6233L16.3262 13.4651C16.2422 13.5725 16.1465 13.6682 16.0391 13.7522L16.1973 13.6291C16.0938 13.7073 15.9844 13.7717 15.8652 13.8225C15.9277 13.7971 15.9902 13.7698 16.0527 13.7444C15.9316 13.7952 15.8066 13.8303 15.6758 13.8498C15.7441 13.8401 15.8145 13.8303 15.8828 13.8225C15.7734 13.8362 15.6641 13.8381 15.5547 13.8381C15.1465 13.8381 14.7539 14.1975 14.7734 14.6194C14.793 15.0432 15.1172 15.4006 15.5547 15.4006ZM4.33203 15.4006C4.83008 15.4006 5.33203 15.2952 5.74219 14.9963C6.21484 14.6526 6.59375 14.1584 6.69922 13.5706C6.77344 13.1526 6.75 12.7268 6.75 12.3049C6.75 11.3401 6.75586 10.3733 6.75 9.40649C6.74805 8.94946 6.61719 8.47094 6.3457 8.09985C6.00391 7.6311 5.51562 7.25415 4.93359 7.14672C4.70898 7.10376 4.47852 7.08227 4.25 7.09399C3.90625 7.11157 3.60742 7.19555 3.29883 7.34008C2.75977 7.59204 2.37891 8.08032 2.16602 8.62133C1.99414 9.05688 2.02734 9.54126 2.02734 10.0002V13.0373C2.02734 13.426 2.11133 13.7776 2.27539 14.1272C2.52539 14.6663 3.01563 15.0471 3.55664 15.26C3.80078 15.3577 4.07031 15.3987 4.33203 15.4006C4.74023 15.4045 5.13281 15.0393 5.11328 14.6194C5.09375 14.1936 4.76953 13.842 4.33203 13.8381C4.25977 13.8381 4.18945 13.8323 4.11719 13.8225C4.18555 13.8323 4.25586 13.842 4.32422 13.8498C4.19336 13.8303 4.06836 13.7952 3.94727 13.7444C4.00977 13.7698 4.07227 13.7971 4.13477 13.8225C4.01562 13.7717 3.90625 13.7073 3.80273 13.6291L3.96094 13.7522C3.85352 13.6682 3.75781 13.5725 3.67383 13.4651L3.79687 13.6233C3.71875 13.5198 3.6543 13.4104 3.60352 13.2913C3.62891 13.3538 3.65625 13.4163 3.68164 13.4788C3.63086 13.3577 3.5957 13.2327 3.57617 13.1018C3.58594 13.1702 3.5957 13.2405 3.60352 13.3088C3.58008 13.135 3.58789 12.9573 3.58789 12.7815V9.79126C3.58789 9.58813 3.57617 9.3811 3.60352 9.17993C3.59375 9.24829 3.58398 9.3186 3.57617 9.38696C3.5957 9.2561 3.63086 9.1311 3.68164 9.01001C3.65625 9.07251 3.62891 9.13501 3.60352 9.19751C3.6543 9.07836 3.71875 8.96899 3.79687 8.86547L3.67383 9.02368C3.75781 8.91626 3.85352 8.82055 3.96094 8.73657L3.80273 8.85961C3.90625 8.78149 4.01562 8.71704 4.13477 8.66626C4.07227 8.69165 4.00977 8.71899 3.94727 8.74438C4.06836 8.6936 4.19336 8.65844 4.32422 8.63891C4.25586 8.64868 4.18555 8.65844 4.11719 8.66626C4.29492 8.64282 4.48242 8.64282 4.66016 8.66626C4.5918 8.65649 4.52148 8.64672 4.45312 8.63891C4.58398 8.65844 4.70898 8.6936 4.83008 8.74438C4.76758 8.71899 4.70508 8.69165 4.64258 8.66626C4.76172 8.71704 4.87109 8.78149 4.97461 8.85961L4.81641 8.73657C4.92383 8.82055 5.01953 8.91626 5.10352 9.02368L4.98047 8.86547C5.05859 8.96899 5.12305 9.07836 5.17383 9.19751C5.14844 9.13501 5.12109 9.07251 5.0957 9.01001C5.14648 9.1311 5.18164 9.2561 5.20117 9.38696C5.19141 9.3186 5.18164 9.24829 5.17383 9.17993C5.19727 9.35376 5.18945 9.53149 5.18945 9.70727V12.6975C5.18945 12.9006 5.20117 13.1077 5.17383 13.3088C5.18359 13.2405 5.19336 13.1702 5.20117 13.1018C5.18164 13.2327 5.14648 13.3577 5.0957 13.4788C5.12109 13.4163 5.14844 13.3538 5.17383 13.2913C5.12305 13.4104 5.05859 13.5198 4.98047 13.6233L5.10352 13.4651C5.01953 13.5725 4.92383 13.6682 4.81641 13.7522L4.97461 13.6291C4.87109 13.7073 4.76172 13.7717 4.64258 13.8225C4.70508 13.7971 4.76758 13.7698 4.83008 13.7444C4.70898 13.7952 4.58398 13.8303 4.45312 13.8498C4.52148 13.8401 4.5918 13.8303 4.66016 13.8225C4.55078 13.8362 4.44141 13.8381 4.33203 13.8381C3.92383 13.8381 3.53125 14.1975 3.55078 14.6194C3.56836 15.0432 3.89453 15.4006 4.33203 15.4006Z" fill="white"/>
<path d="M3.58984 13.039V8.7324C3.58984 8.33006 3.59961 7.92967 3.65234 7.53123C3.64258 7.59959 3.63281 7.6699 3.625 7.73826C3.71094 7.10935 3.87891 6.49412 4.125 5.90818C4.09961 5.97068 4.07227 6.03318 4.04688 6.09568C4.29102 5.52342 4.60547 4.98435 4.98633 4.49217L4.86328 4.65037C5.24219 4.16209 5.68164 3.72263 6.16992 3.34373L6.01172 3.46678C6.50391 3.08787 7.04297 2.77146 7.61523 2.52732C7.55273 2.55271 7.49023 2.58006 7.42773 2.60545C8.01367 2.35935 8.62891 2.19138 9.25781 2.10545C9.18945 2.11521 9.11914 2.12498 9.05078 2.13279C9.68164 2.05076 10.3203 2.05076 10.9512 2.13279C10.8828 2.12303 10.8125 2.11326 10.7441 2.10545C11.373 2.19138 11.9883 2.35935 12.5742 2.60545C12.5117 2.58006 12.4492 2.55271 12.3867 2.52732C12.959 2.77146 13.498 3.08592 13.9902 3.46678L13.832 3.34373C14.3203 3.72263 14.7598 4.16209 15.1387 4.65037L15.0156 4.49217C15.3945 4.98435 15.7109 5.52342 15.9551 6.09568C15.9297 6.03318 15.9023 5.97068 15.877 5.90818C16.123 6.49412 16.291 7.10935 16.377 7.73826C16.3672 7.6699 16.3574 7.59959 16.3496 7.53123C16.4043 7.94529 16.4121 8.35935 16.4121 8.77537V13.4961C16.4121 13.8574 16.4277 14.2246 16.3809 14.584C16.3906 14.5156 16.4004 14.4453 16.4082 14.3769C16.3672 14.6738 16.2891 14.9629 16.1738 15.2383C16.1992 15.1758 16.2266 15.1133 16.252 15.0508C16.1348 15.3281 15.9824 15.5879 15.7969 15.8281L15.9199 15.6699C15.7402 15.9004 15.5352 16.1054 15.3047 16.2851L15.4629 16.1621C15.2246 16.3457 14.9629 16.498 14.6855 16.6172C14.748 16.5918 14.8105 16.5644 14.873 16.539C14.5957 16.6543 14.3086 16.7324 14.0117 16.7734C14.0801 16.7637 14.1504 16.7539 14.2188 16.7461C13.916 16.7851 13.6113 16.7773 13.3066 16.7773H11.8848C11.4766 16.7773 11.084 17.1367 11.1035 17.5586C11.123 17.9824 11.4473 18.3398 11.8848 18.3398H13.3242C13.5059 18.3398 13.6875 18.3437 13.8691 18.3379C14.4336 18.3203 14.959 18.1875 15.4746 17.9668C16.3438 17.5937 17.0977 16.8769 17.5156 16.0293C17.7656 15.5215 17.9082 15.0019 17.9609 14.4375C17.9746 14.2929 17.9746 14.1484 17.9746 14.0019V10.9726C17.9746 10.1426 17.9766 9.31248 17.9746 8.4824C17.9727 7.5781 17.8223 6.65818 17.5098 5.80857C17.1738 4.89451 16.6934 4.07029 16.0684 3.3242C14.9023 1.93357 13.2109 0.945291 11.4238 0.63865C10.4297 0.466775 9.4375 0.472635 8.44727 0.662088C7.54688 0.833963 6.66406 1.18357 5.88086 1.66013C4.27734 2.63865 3.0625 4.16014 2.44922 5.93162C2.16602 6.74803 2.0293 7.62498 2.02734 8.48826V13.039C2.02734 13.4472 2.38672 13.8398 2.80859 13.8203C3.23047 13.8008 3.58984 13.4765 3.58984 13.039Z" fill="white"/>
<path d="M11.1035 17.5566C11.1035 17.6113 11.0996 17.666 11.0918 17.7188C11.1016 17.6504 11.1113 17.5801 11.1191 17.5117C11.1035 17.6074 11.0781 17.7012 11.043 17.791C11.0684 17.7285 11.0957 17.666 11.1211 17.6035C11.0801 17.6992 11.0273 17.7871 10.9648 17.8711L11.0879 17.7129C11.0293 17.7871 10.9629 17.8535 10.8887 17.9121L11.0469 17.7891C10.9648 17.8516 10.875 17.9043 10.7793 17.9453C10.8418 17.9199 10.9043 17.8926 10.9668 17.8672C10.877 17.9043 10.7832 17.9297 10.6875 17.9434C10.7559 17.9336 10.8262 17.9238 10.8945 17.916C10.6387 17.9492 10.3711 17.9277 10.1133 17.9277C9.85157 17.9277 9.58008 17.9492 9.32032 17.918C9.38867 17.9277 9.45899 17.9375 9.52735 17.9453C9.42578 17.9297 9.33008 17.9043 9.23438 17.8652C9.29688 17.8906 9.35938 17.918 9.42188 17.9434C9.33008 17.9023 9.2461 17.8535 9.16602 17.793L9.32422 17.916C9.2461 17.8535 9.17774 17.7852 9.11524 17.707L9.23828 17.8652C9.17774 17.7852 9.12891 17.7012 9.08789 17.6094C9.11328 17.6719 9.14063 17.7344 9.16602 17.7969C9.12696 17.7031 9.10157 17.6055 9.08594 17.5039C9.09571 17.5723 9.10547 17.6426 9.11328 17.7109C9.09961 17.6035 9.09961 17.498 9.11328 17.3926C9.10352 17.4609 9.09375 17.5312 9.08594 17.5996C9.10157 17.5039 9.12696 17.4102 9.16211 17.3203C9.13672 17.3828 9.10938 17.4453 9.08399 17.5078C9.125 17.4121 9.17774 17.3242 9.24024 17.2402L9.11719 17.3984C9.17578 17.3242 9.24219 17.2578 9.31641 17.1992L9.15821 17.3223C9.24024 17.2598 9.33008 17.207 9.42578 17.166C9.36328 17.1914 9.30078 17.2188 9.23828 17.2441C9.32813 17.207 9.42188 17.1816 9.51758 17.168C9.44922 17.1777 9.37891 17.1875 9.31055 17.1953C9.56641 17.1621 9.83399 17.1836 10.0918 17.1836C10.3535 17.1836 10.625 17.1621 10.8848 17.1934C10.8164 17.1836 10.7461 17.1738 10.6777 17.166C10.7793 17.1816 10.875 17.207 10.9707 17.2461C10.9082 17.2207 10.8457 17.1934 10.7832 17.168C10.875 17.209 10.959 17.2578 11.0391 17.3184L10.8809 17.1953C10.959 17.2578 11.0273 17.3262 11.0898 17.4043L10.9668 17.2461C11.0273 17.3262 11.0762 17.4102 11.1172 17.502C11.0918 17.4395 11.0645 17.377 11.0391 17.3145C11.0781 17.4082 11.1035 17.5059 11.1191 17.6074C11.1094 17.5391 11.0996 17.4688 11.0918 17.4004C11.0996 17.4531 11.1016 17.5039 11.1035 17.5566C11.1055 17.7578 11.1895 17.9648 11.332 18.1094C11.4668 18.2441 11.6895 18.3477 11.8848 18.3379C12.3027 18.3184 12.6719 17.9941 12.666 17.5566C12.6621 17.2012 12.5664 16.8301 12.3691 16.5293C12.1836 16.248 11.9316 15.9922 11.627 15.8418C11.3398 15.7012 11.0469 15.623 10.7227 15.6191H9.47266C9.14453 15.623 8.83203 15.7051 8.54102 15.8594C8.25977 16.0078 8.04102 16.2363 7.85742 16.4922C7.66797 16.7578 7.58789 17.0723 7.54688 17.3926C7.50391 17.748 7.59375 18.1055 7.7461 18.4258C7.89258 18.7383 8.14063 18.9844 8.42188 19.1797C8.77735 19.4258 9.20313 19.4922 9.625 19.4922H10.7266C11.0566 19.4883 11.3691 19.4062 11.6602 19.252C12.2793 18.9238 12.6582 18.2461 12.666 17.5547C12.6699 17.1465 12.3027 16.7539 11.8848 16.7734C11.457 16.7949 11.1074 17.1191 11.1035 17.5566Z" fill="white"/>
</svg>
