<svg width="20" height="20" viewBox="0 0 20 20" fill="none" xmlns="http://www.w3.org/2000/svg">
<path d="M10.8333 6.6665V9.65484L12.2558 11.0773C12.3354 11.1542 12.3989 11.2462 12.4426 11.3478C12.4863 11.4495 12.5092 11.5589 12.5102 11.6695C12.5112 11.7802 12.4901 11.8899 12.4482 11.9923C12.4063 12.0947 12.3444 12.1878 12.2662 12.266C12.1879 12.3442 12.0949 12.4061 11.9925 12.448C11.89 12.4899 11.7803 12.511 11.6697 12.51C11.559 12.5091 11.4497 12.4861 11.348 12.4424C11.2463 12.3987 11.1544 12.3353 11.0775 12.2557L9.41083 10.589C9.25454 10.4328 9.16671 10.2208 9.16667 9.99984V6.6665C9.16667 6.44549 9.25446 6.23353 9.41074 6.07725C9.56703 5.92097 9.77899 5.83317 10 5.83317C10.221 5.83317 10.433 5.92097 10.5893 6.07725C10.7455 6.23353 10.8333 6.44549 10.8333 6.6665ZM10.0217 1.6665C8.93303 1.66788 7.85538 1.88428 6.85061 2.30329C5.84584 2.72231 4.93373 3.33567 4.16667 4.10817V2.49984C4.16667 2.27882 4.07887 2.06686 3.92259 1.91058C3.76631 1.7543 3.55435 1.6665 3.33333 1.6665C3.11232 1.6665 2.90036 1.7543 2.74408 1.91058C2.5878 2.06686 2.5 2.27882 2.5 2.49984V5.83317C2.5 6.05418 2.5878 6.26615 2.74408 6.42243C2.90036 6.57871 3.11232 6.6665 3.33333 6.6665H6.66667C6.88768 6.6665 7.09964 6.57871 7.25592 6.42243C7.4122 6.26615 7.5 6.05418 7.5 5.83317C7.5 5.61216 7.4122 5.4002 7.25592 5.24391C7.09964 5.08763 6.88768 4.99984 6.66667 4.99984H5.63417C6.44379 4.29248 7.41273 3.79181 8.45809 3.54065C9.50344 3.2895 10.5941 3.29534 11.6367 3.55768C12.6793 3.82002 13.6428 4.33104 14.4448 5.04703C15.2468 5.76301 15.8634 6.66264 16.2418 7.66893C16.6203 8.67523 16.7493 9.75822 16.6178 10.8253C16.4864 11.8923 16.0984 12.9116 15.487 13.7959C14.8756 14.6803 14.0591 15.4034 13.1073 15.9033C12.1555 16.4032 11.0968 16.6651 10.0217 16.6665C8.78385 16.6716 7.56975 16.3271 6.51916 15.6725C5.46858 15.0179 4.62423 14.0799 4.08333 12.9665C4.03815 12.8636 3.97261 12.7709 3.89065 12.6939C3.8087 12.617 3.71203 12.5574 3.60646 12.5188C3.50089 12.4802 3.38861 12.4634 3.27636 12.4693C3.16411 12.4753 3.05422 12.5038 2.95331 12.5533C2.85239 12.6028 2.76253 12.6722 2.68914 12.7574C2.61574 12.8425 2.56033 12.9416 2.52623 13.0487C2.49214 13.1558 2.48006 13.2687 2.49073 13.3806C2.50141 13.4925 2.53461 13.6011 2.58833 13.6998C3.26487 15.0941 4.32162 16.2688 5.63677 17.0886C6.95193 17.9083 8.47196 18.3398 10.0217 18.3332C12.2318 18.3332 14.3514 17.4552 15.9142 15.8924C17.477 14.3296 18.355 12.21 18.355 9.99984C18.355 7.7897 17.477 5.67008 15.9142 4.10728C14.3514 2.54448 12.2318 1.6665 10.0217 1.6665Z" fill="white"/>
</svg>
