<svg width="18" height="18" viewBox="0 0 18 18" fill="none" xmlns="http://www.w3.org/2000/svg">
<path fill-rule="evenodd" clip-rule="evenodd" d="M4.83333 0.666748C5.29356 0.666748 5.66666 1.03985 5.66666 1.50008V2.33341H12.3333V1.50008C12.3333 1.03985 12.7064 0.666748 13.1667 0.666748C13.6269 0.666748 14 1.03985 14 1.50008V2.33341H14.8333C16.2141 2.33341 17.3333 3.45271 17.3333 4.83341V10.6667C17.3333 11.127 16.9602 11.5001 16.5 11.5001C16.0397 11.5001 15.6667 11.127 15.6667 10.6667V7.33342H2.33333V14.8334C2.33333 15.2937 2.70643 15.6667 3.16666 15.6667H7.33333C7.79358 15.6667 8.16666 16.0398 8.16666 16.5001C8.16666 16.9603 7.79358 17.3334 7.33333 17.3334H3.16666C1.78596 17.3334 0.666664 16.2142 0.666664 14.8334V4.83341C0.666664 3.45271 1.78596 2.33341 3.16666 2.33341H4V1.50008C4 1.03985 4.3731 0.666748 4.83333 0.666748ZM3.16666 4.00008C2.70643 4.00008 2.33333 4.37318 2.33333 4.83341V5.66675H15.6667V4.83341C15.6667 4.37318 15.2936 4.00008 14.8333 4.00008H3.16666Z" fill="white"/>
<path d="M14.2441 13.7561C13.9187 13.4306 13.9187 12.903 14.2441 12.5776C14.5695 12.2521 15.0972 12.2521 15.4226 12.5776L17.0892 14.2442C17.4147 14.5696 17.4147 15.0973 17.0892 15.4227L15.4226 17.0894C15.0972 17.4148 14.5695 17.4148 14.2441 17.0894C13.9187 16.764 13.9187 16.2363 14.2441 15.9109L15.3215 14.8335L14.2441 13.7561Z" fill="white"/>
<path d="M10.0774 12.5776C9.752 12.903 9.752 13.4306 10.0774 13.7561L11.1548 14.8335L10.0774 15.9109C9.752 16.2363 9.752 16.764 10.0774 17.0894C10.4028 17.4148 10.9305 17.4148 11.2559 17.0894L12.9226 15.4227C13.248 15.0973 13.248 14.5696 12.9226 14.2442L11.2559 12.5776C10.9305 12.2521 10.4028 12.2521 10.0774 12.5776Z" fill="white"/>
</svg>
