<svg width="20" height="20" viewBox="0 0 20 20" fill="none" xmlns="http://www.w3.org/2000/svg">
<path d="M15.0527 15.8337C15.0527 15.3274 15.0527 14.5374 15.0527 14.5374C15.0527 13.8498 14.7845 13.1903 14.3072 12.7041C13.8298 12.2179 13.1823 11.9448 12.5073 11.9448H7.41634C6.74124 11.9448 6.0938 12.2179 5.61643 12.7041C5.13907 13.1903 4.87089 13.8498 4.87089 14.5374V15.8337M18.8709 15.8337V14.5374C18.8705 13.9629 18.6828 13.4049 18.3372 12.9509C17.9917 12.4969 17.5079 12.1726 16.9618 12.029M14.4163 4.25125C14.9639 4.39404 15.4492 4.71837 15.7957 5.17312C16.1423 5.62787 16.3304 6.18716 16.3304 6.76283C16.3304 7.33849 16.1423 7.89779 15.7957 8.35253C15.4492 8.80728 14.9639 9.13161 14.4163 9.2744M1.08301 15.8337V14.5374C1.08343 13.9629 1.27115 13.4049 1.61669 12.9509C1.96223 12.4969 2.9921 12.029 2.9921 12.029M5.53756 4.25125C4.99002 4.39404 4.50472 4.71837 4.15815 5.17312C3.81159 5.62787 3.62348 6.18716 3.62348 6.76283C3.62348 7.33849 3.81159 7.89779 4.15815 8.35253C4.50472 8.80728 4.99002 9.13161 5.53756 9.2744M12.5073 6.75958C12.5073 8.19143 11.3676 9.35218 9.9618 9.35218C8.55598 9.35218 7.41634 8.19143 7.41634 6.75958C7.41634 5.32774 8.55598 4.16699 9.9618 4.16699C11.3676 4.16699 12.5073 5.32774 12.5073 6.75958Z" stroke="#667085" stroke-width="1.8" stroke-linecap="round" stroke-linejoin="round"/>
</svg>
