<svg width="20" height="20" viewBox="0 0 20 20" fill="none" xmlns="http://www.w3.org/2000/svg">
<path d="M15.0529 15.8332C15.0529 15.3269 15.0529 14.5369 15.0529 14.5369C15.0529 13.8493 14.7847 13.1898 14.3073 12.7036C13.83 12.2174 13.1825 11.9443 12.5074 11.9443H7.41652C6.74143 11.9443 6.09398 12.2174 5.61662 12.7036C5.13925 13.1898 4.87107 13.8493 4.87107 14.5369V15.8332M18.8711 15.8332V14.5369C18.8707 13.9624 18.6829 13.4044 18.3374 12.9504C17.9919 12.4964 17.5081 12.1722 16.962 12.0285M14.4165 4.25076C14.9641 4.39355 15.4494 4.71788 15.7959 5.17263C16.1425 5.62738 16.3306 6.18667 16.3306 6.76234C16.3306 7.338 16.1425 7.8973 15.7959 8.35204C15.4494 8.80679 14.9641 9.13112 14.4165 9.27391M1.08319 15.8332V14.5369C1.08362 13.9624 1.27133 13.4044 1.61687 12.9504C1.96241 12.4964 2.99229 12.0285 2.99229 12.0285M5.53774 4.25076C4.9902 4.39355 4.5049 4.71788 4.15833 5.17263C3.81177 5.62738 3.62366 6.18667 3.62366 6.76234C3.62366 7.338 3.81177 7.8973 4.15833 8.35204C4.5049 8.80679 4.9902 9.13112 5.53774 9.27391M12.5074 6.7591C12.5074 8.19095 11.3678 9.35169 9.96198 9.35169C8.55616 9.35169 7.41652 8.19095 7.41652 6.7591C7.41652 5.32725 8.55616 4.1665 9.96198 4.1665C11.3678 4.1665 12.5074 5.32725 12.5074 6.7591Z" stroke="white" stroke-width="1.8" stroke-linecap="round" stroke-linejoin="round"/>
</svg>
